HIERARCHY
ROOT Hips
{
	OFFSET 0.000000 100.481300 0.000000
	CHANNELS 6 Xposition Yposition Zposition Xrotation Yrotation Zrotation 
	JOINT Spine
	{
		OFFSET -0.279200 12.230698 -2.892100
		CHANNELS 3 Xrotation Yrotation Zrotation
		JOINT Spine1
		{
			OFFSET -0.232667 10.192268 -1.242267
			CHANNELS 3 Xrotation Yrotation Zrotation
			JOINT Spine1_split
			{
				OFFSET -0.232667 10.192268 -1.242267
				CHANNELS 3 Xrotation Yrotation Zrotation
				JOINT Spine2
				{
					OFFSET -0.232667 10.192268 -1.242267
					CHANNELS 3 Xrotation Yrotation Zrotation
					JOINT Neck
					{
						OFFSET -0.418800 17.814194 8.416900
						CHANNELS 3 Xrotation Yrotation Zrotation
						JOINT Head
						{
							OFFSET 0.000000 7.031097 3.806800
							CHANNELS 3 Xrotation Yrotation Zrotation
							JOINT HeadTop_End
							{
								OFFSET 0.000000 24.646606 12.978600
								CHANNELS 3 Xrotation Yrotation Zrotation
								End Site
								{
									OFFSET 0.000000 0.000000 0.000000
								}
							}
						}
					}
					JOINT LeftShoulder
					{
						OFFSET 8.476499 7.247704 -3.868750
						CHANNELS 3 Xrotation Yrotation Zrotation
						JOINT LeftShoulder_split
						{
							OFFSET 8.476499 7.247704 -3.868750
							CHANNELS 3 Xrotation Yrotation Zrotation
							JOINT LeftArm
							{
								OFFSET 9.308998 -2.777710 0.208600
								CHANNELS 3 Xrotation Yrotation Zrotation
								JOINT LeftForeArm
								{
									OFFSET 29.972298 0.000000 0.000000
									CHANNELS 3 Xrotation Yrotation Zrotation
									JOINT LeftHand
									{
										OFFSET 26.026505 0.000000 0.000000
										CHANNELS 3 Xrotation Yrotation Zrotation
										JOINT LeftHandThumb1
										{
											OFFSET 12.240501 -7.147949 9.207150
											CHANNELS 3 Xrotation Yrotation Zrotation
											JOINT LeftHandThumb2
											{
												OFFSET 4.138618 -2.389435 2.389433
												CHANNELS 3 Xrotation Yrotation Zrotation
												JOINT LeftHandThumb3
												{
													OFFSET 2.726913 -1.574387 1.574386
													CHANNELS 3 Xrotation Yrotation Zrotation
													JOINT LeftHandThumb4
													{
														OFFSET 3.941010 -2.275345 2.275342
														CHANNELS 3 Xrotation Yrotation Zrotation
														End Site
														{
															OFFSET 0.000000 0.000000 0.000000
														}
													}
												}
											}
										}
										JOINT LeftHandIndex1
										{
											OFFSET 24.424698 -1.985611 5.953459
											CHANNELS 3 Xrotation Yrotation Zrotation
											JOINT LeftHandIndex2
											{
												OFFSET 6.426697 0.000000 0.000000
												CHANNELS 3 Xrotation Yrotation Zrotation
												JOINT LeftHandIndex3
												{
													OFFSET 5.337898 0.000000 0.000000
													CHANNELS 3 Xrotation Yrotation Zrotation
													JOINT LeftHandIndex4
													{
														OFFSET 4.409401 0.000000 0.000000
														CHANNELS 3 Xrotation Yrotation Zrotation
														End Site
														{
															OFFSET 0.000000 0.000000 0.000000
														}
													}
												}
											}
										}
										JOINT LeftHandMiddle1
										{
											OFFSET 23.810104 0.000000 0.000000
											CHANNELS 3 Xrotation Yrotation Zrotation
											JOINT LeftHandMiddle2
											{
												OFFSET 7.176498 0.000000 0.000000
												CHANNELS 3 Xrotation Yrotation Zrotation
												JOINT LeftHandMiddle3
												{
													OFFSET 6.774902 0.000000 0.000000
													CHANNELS 3 Xrotation Yrotation Zrotation
													JOINT LeftHandMiddle4
													{
														OFFSET 5.403328 0.000000 0.000000
														CHANNELS 3 Xrotation Yrotation Zrotation
														End Site
														{
															OFFSET 0.000000 0.000000 0.000000
														}
													}
												}
											}
										}
										JOINT LeftHandRing1
										{
											OFFSET 22.908401 -0.839279 -6.020567
											CHANNELS 3 Xrotation Yrotation Zrotation
											JOINT LeftHandRing2
											{
												OFFSET 6.337502 0.000000 0.000000
												CHANNELS 3 Xrotation Yrotation Zrotation
												JOINT LeftHandRing3
												{
													OFFSET 5.779297 0.000000 0.000000
													CHANNELS 3 Xrotation Yrotation Zrotation
													JOINT LeftHandRing4
													{
														OFFSET 4.965698 0.000000 0.000000
														CHANNELS 3 Xrotation Yrotation Zrotation
														End Site
														{
															OFFSET 0.000000 0.000000 0.000000
														}
													}
												}
											}
										}
										JOINT LeftHandPinky1
										{
											OFFSET 20.037003 -1.530319 -10.950146
											CHANNELS 3 Xrotation Yrotation Zrotation
											JOINT LeftHandPinky2
											{
												OFFSET 5.254700 0.000000 0.000000
												CHANNELS 3 Xrotation Yrotation Zrotation
												JOINT LeftHandPinky3
												{
													OFFSET 4.810204 0.000000 0.000000
													CHANNELS 3 Xrotation Yrotation Zrotation
													JOINT LeftHandPinky4
													{
														OFFSET 3.647202 0.000000 0.000000
														CHANNELS 3 Xrotation Yrotation Zrotation
														End Site
														{
															OFFSET 0.000000 0.000000 0.000000
														}
													}
												}
											}
										}
									}
								}
							}
						}
					}
					JOINT RightShoulder
					{
						OFFSET -7.570500 7.247704 -3.868750
						CHANNELS 3 Xrotation Yrotation Zrotation
						JOINT RightShoulder_split
						{
							OFFSET -7.570500 7.247704 -3.868750
							CHANNELS 3 Xrotation Yrotation Zrotation
							JOINT RightArm
							{
								OFFSET -9.308998 -2.777710 0.208500
								CHANNELS 3 Xrotation Yrotation Zrotation
								JOINT RightForeArm
								{
									OFFSET -29.972300 0.000000 0.000000
									CHANNELS 3 Xrotation Yrotation Zrotation
									JOINT RightHand
									{
										OFFSET -26.026505 0.000000 0.000000
										CHANNELS 3 Xrotation Yrotation Zrotation
										JOINT RightHandThumb1
										{
											OFFSET -12.240601 -7.148026 9.207092
											CHANNELS 3 Xrotation Yrotation Zrotation
											JOINT RightHandThumb2
											{
												OFFSET -4.138618 -2.389435 2.389433
												CHANNELS 3 Xrotation Yrotation Zrotation
												JOINT RightHandThumb3
												{
													OFFSET -2.726974 -1.574417 1.574421
													CHANNELS 3 Xrotation Yrotation Zrotation
													JOINT RightHandThumb4
													{
														OFFSET -3.941010 -2.275345 2.275343
														CHANNELS 3 Xrotation Yrotation Zrotation
														End Site
														{
															OFFSET 0.000000 0.000000 0.000000
														}
													}
												}
											}
										}
										JOINT RightHandIndex1
										{
											OFFSET -24.424698 -1.985657 5.953444
											CHANNELS 3 Xrotation Yrotation Zrotation
											JOINT RightHandIndex2
											{
												OFFSET -6.426697 0.000000 0.000000
												CHANNELS 3 Xrotation Yrotation Zrotation
												JOINT RightHandIndex3
												{
													OFFSET -5.337898 0.000000 0.000000
													CHANNELS 3 Xrotation Yrotation Zrotation
													JOINT RightHandIndex4
													{
														OFFSET -4.409401 0.000000 0.000000
														CHANNELS 3 Xrotation Yrotation Zrotation
														End Site
														{
															OFFSET 0.000000 0.000000 0.000000
														}
													}
												}
											}
										}
										JOINT RightHandMiddle1
										{
											OFFSET -23.810097 0.000000 0.000000
											CHANNELS 3 Xrotation Yrotation Zrotation
											JOINT RightHandMiddle2
											{
												OFFSET -7.176498 0.000000 0.000000
												CHANNELS 3 Xrotation Yrotation Zrotation
												JOINT RightHandMiddle3
												{
													OFFSET -6.774902 0.000000 0.000000
													CHANNELS 3 Xrotation Yrotation Zrotation
													JOINT RightHandMiddle4
													{
														OFFSET -5.403328 0.000000 0.000000
														CHANNELS 3 Xrotation Yrotation Zrotation
														End Site
														{
															OFFSET 0.000000 0.000000 0.000000
														}
													}
												}
											}
										}
										JOINT RightHandRing1
										{
											OFFSET -22.908302 -0.839325 -6.020576
											CHANNELS 3 Xrotation Yrotation Zrotation
											JOINT RightHandRing2
											{
												OFFSET -6.337502 0.000000 0.000000
												CHANNELS 3 Xrotation Yrotation Zrotation
												JOINT RightHandRing3
												{
													OFFSET -5.779297 0.000000 0.000000
													CHANNELS 3 Xrotation Yrotation Zrotation
													JOINT RightHandRing4
													{
														OFFSET -4.965698 0.000000 0.000000
														CHANNELS 3 Xrotation Yrotation Zrotation
														End Site
														{
															OFFSET 0.000000 0.000000 0.000000
														}
													}
												}
											}
										}
										JOINT RightHandPinky1
										{
											OFFSET -20.037003 -1.530334 -10.950259
											CHANNELS 3 Xrotation Yrotation Zrotation
											JOINT RightHandPinky2
											{
												OFFSET -5.254700 0.000000 0.000000
												CHANNELS 3 Xrotation Yrotation Zrotation
												JOINT RightHandPinky3
												{
													OFFSET -4.810204 0.000000 0.000000
													CHANNELS 3 Xrotation Yrotation Zrotation
													JOINT RightHandPinky4
													{
														OFFSET -3.647202 0.000000 0.000000
														CHANNELS 3 Xrotation Yrotation Zrotation
														End Site
														{
															OFFSET 0.000000 0.000000 0.000000
														}
													}
												}
											}
										}
									}
								}
							}
						}
					}
				}
			}
		}
	}
	JOINT LeftUpLeg
	{
		OFFSET 15.427100 -6.655098 0.678600
		CHANNELS 3 Xrotation Yrotation Zrotation
		JOINT LeftLeg
		{
			OFFSET 4.081073 -39.591068 13.024000
			CHANNELS 3 Xrotation Yrotation Zrotation
			JOINT LeftFoot
			{
				OFFSET -4.081074 -37.707932 -15.979700
				CHANNELS 3 Xrotation Yrotation Zrotation
				JOINT LeftToeBase
				{
					OFFSET 5.346399 -15.068900 20.645000
					CHANNELS 3 Xrotation Yrotation Zrotation
					JOINT LeftToe_End
					{
						OFFSET 2.754700 0.931300 11.300900
						CHANNELS 3 Xrotation Yrotation Zrotation
						End Site
						{
							OFFSET 0.000000 0.000000 0.000000
						}
					}
				}
			}
		}
	}
	JOINT RightUpLeg
	{
		OFFSET -15.569500 -6.655098 0.678600
		CHANNELS 3 Xrotation Yrotation Zrotation
		JOINT RightLeg
		{
			OFFSET -4.081825 -39.591045 13.023800
			CHANNELS 3 Xrotation Yrotation Zrotation
			JOINT RightFoot
			{
				OFFSET 4.081824 -37.707954 -15.979600
				CHANNELS 3 Xrotation Yrotation Zrotation
				JOINT RightToeBase
				{
					OFFSET -5.346400 -15.068900 20.645000
					CHANNELS 3 Xrotation Yrotation Zrotation
					JOINT RightToe_End
					{
						OFFSET -2.754700 0.931300 11.300900
						CHANNELS 3 Xrotation Yrotation Zrotation
						End Site
						{
							OFFSET 0.000000 0.000000 0.000000
						}
					}
				}
			}
		}
	}
}
MOTION
Frames: 4
Frame Time: 0.016667
-12.837767 61.591461 -5.085867 -2.876611 2.055811 0.468767 8.962841 2.810804 -2.252933 3.966863 0.230937 -3.978305 0.000000 0.000000 0.000000 3.989346 0.231039 -3.977842 5.038292 -8.338511 11.033141 -0.460165 -3.911049 -10.648854 0.000001 0.000000 0.000001 -8.173989 -31.527979 -8.252503 0.000000 0.000000 0.000000 -31.588556 -14.766814 -24.997736 -124.594562 -59.639702 -127.258746 -8.365620 -5.660510 17.684062 15.614825 18.236689 11.488228 11.421627 30.331344 -11.339186 2.081508 57.074314 29.941644 0.000001 0.000000 0.000004 19.961284 12.194205 -48.814396 -0.280073 1.062279 -128.835208 -0.439153 0.794140 -96.525866 -0.000002 0.000000 0.000001 7.703395 10.532967 -62.910878 0.990453 -0.061690 -121.377352 0.940078 -0.338440 -98.726853 -0.000001 0.000000 0.000000 0.948592 15.112217 -68.414303 0.879511 -0.210884 -117.521191 0.879914 0.333437 -117.027587 -0.000002 0.000001 -0.000003 -16.314218 19.696859 -71.347678 0.695866 -0.323409 -142.818436 0.584935 0.047118 -85.973114 0.000005 -0.000003 -0.000000 -8.947958 32.923247 10.353826 0.000000 0.000000 0.000000 -34.168411 8.238682 31.408864 50.102757 118.312318 -44.867448 -7.430170 8.835779 -25.387562 17.261087 -16.812960 -12.690458 10.409561 -24.931136 14.714509 -0.718669 -60.920014 -34.719160 0.000000 0.000000 0.000002 19.952632 -0.387270 46.095929 -0.057027 -1.141820 137.151537 -0.365264 -0.886888 100.484548 0.000003 0.000000 -0.000003 6.186504 -2.518731 61.008015 0.941185 0.201316 126.871392 0.934514 0.366321 97.857213 -0.000000 -0.000001 -0.000003 0.195745 -7.578824 62.006219 0.865287 0.303845 119.921456 0.873715 -0.346671 114.873209 -0.000001 -0.000000 0.000001 -17.990698 -11.912547 65.482656 0.676373 0.402111 146.296109 0.561363 -0.084813 77.911210 0.000001 -0.000002 0.000003 -70.788716 -8.496538 3.704406 57.797607 -16.275706 -7.791703 12.549522 -3.880481 -6.061794 -0.327628 1.263337 0.837213 -0.000000 0.000002 0.000000 5.711036 -2.181349 -6.962898 76.677479 -3.801807 -3.588444 -52.919633 -6.087006 15.316923 -32.417546 -0.294221 -1.847553 -0.000000 0.000001 0.000000 
-13.095254 64.172806 -4.903029 -0.927596 3.873660 0.786891 8.265165 2.425673 -2.435247 2.568483 -0.078458 -4.312727 0.000000 0.000000 0.000000 2.590949 -0.078386 -4.312244 0.090884 -9.587591 9.553650 -0.716502 -4.945427 -10.676961 0.000001 0.000000 0.000001 -8.485030 -28.820475 -9.252587 0.000000 0.000000 0.000000 -25.663305 -15.710622 -18.176242 -134.370271 -56.428923 -136.822568 -8.621288 -3.463221 20.162302 14.821229 17.379377 11.215545 10.269864 28.734848 -10.694090 3.816904 51.183518 25.752743 -0.000002 0.000002 0.000001 16.649749 9.371641 -44.593916 -0.351045 0.994004 -120.047350 -0.450139 0.742104 -90.659888 0.000001 0.000000 -0.000000 6.076237 7.776706 -58.086832 1.006505 0.042508 -113.465677 0.918449 -0.280436 -93.415022 0.000002 0.000000 -0.000000 0.133082 12.601310 -64.387189 0.867691 -0.128590 -110.199768 0.875312 0.402496 -109.997205 0.000004 0.000000 0.000002 -15.415781 16.999629 -68.074993 0.715048 -0.239990 -133.253220 0.559365 0.071245 -81.705988 -0.000002 -0.000001 -0.000000 -8.020594 29.104092 7.655829 0.000000 0.000000 0.000000 -24.846579 11.304230 29.134561 32.701972 121.145016 -30.427424 -8.088090 5.625858 -27.490547 15.061803 -14.238103 -12.274954 10.652994 -26.601749 13.514519 0.666324 -59.059519 -32.370176 0.000001 0.000006 0.000002 19.237417 0.147154 44.669967 -0.156364 -1.095419 130.775979 -0.382748 -0.820929 96.368915 -0.000001 -0.000001 -0.000001 5.981515 -1.717683 59.670561 0.967276 0.104963 121.723670 0.918748 0.315212 94.635925 -0.000000 -0.000001 0.000002 0.026730 -7.126165 61.895338 0.865381 0.227835 115.797607 0.865963 -0.385793 111.152217 -0.000001 0.000001 -0.000004 -16.993722 -12.001667 65.678600 0.697950 0.337684 141.340041 0.548699 -0.092635 77.197482 0.000003 -0.000001 0.000000 -69.560709 -8.071284 1.779500 53.870696 -16.083904 -6.954146 13.181092 -3.808737 -6.359615 -0.327589 1.261711 0.837202 -0.000000 0.000002 0.000000 4.369071 -3.247739 -5.765673 72.574066 -5.299527 -4.221935 -50.894680 -5.550593 15.098077 -30.861725 -0.234529 -1.804140 0.000000 0.000000 -0.000000 
-13.343369 66.970146 -4.642688 1.184830 5.608450 1.010936 7.515424 1.990997 -2.592501 1.064141 -0.427328 -4.603812 0.000000 0.000000 0.000000 1.086616 -0.427257 -4.603350 -5.694804 -10.493378 7.608347 -0.030810 -6.025160 -10.033724 -0.000000 -0.000000 -0.000000 -8.676807 -25.765733 -10.075470 0.000000 0.000000 0.000000 -18.326613 -15.006474 -10.670910 -143.139974 -54.309570 -144.303852 -8.338694 -4.453244 22.583585 13.542301 15.852881 10.916849 8.824492 26.648360 -9.992321 4.898070 43.714734 21.422455 0.000001 0.000001 0.000002 13.337088 4.780011 -39.370764 -0.419277 0.892998 -109.137755 -0.454488 0.674943 -83.429156 -0.000003 -0.000001 -0.000002 4.808493 3.926233 -52.134315 1.003537 0.176444 -103.588835 0.884249 -0.208918 -86.733055 0.000000 0.000000 0.000001 -0.215164 9.437569 -59.277921 0.838044 -0.028817 -100.964587 0.855853 0.491762 -101.072272 -0.000000 -0.000000 0.000000 -13.745430 13.901452 -63.510514 0.719989 -0.132180 -121.198770 0.524455 0.100530 -76.122438 -0.000001 -0.000000 -0.000000 -7.681962 25.388554 6.444246 0.000000 0.000000 0.000000 -12.655752 14.347769 25.486339 5.490607 121.793638 -9.171622 -8.726475 2.964765 -28.818672 11.624284 -10.440111 -11.249724 11.086824 -29.256190 11.708965 2.424920 -56.368134 -29.269201 0.000002 -0.000004 -0.000001 18.267570 0.888052 42.688515 -0.289865 -1.006611 121.263397 -0.397274 -0.723564 90.136060 0.000002 -0.000001 -0.000003 5.769981 -0.545428 57.834866 0.983933 -0.035233 114.143246 0.887849 0.243707 89.818128 -0.000001 0.000000 -0.000002 -0.199855 -6.376000 61.868858 0.850969 0.117615 109.628757 0.847142 -0.441566 105.483352 -0.000001 -0.000002 -0.000003 -15.494101 -12.026842 66.080864 0.715344 0.240922 133.925953 0.527577 -0.104273 75.889337 0.000001 -0.000003 -0.000001 -68.152550 -7.848289 -0.161874 49.600666 -15.884995 -5.918546 13.840518 -3.705235 -6.775060 -0.327526 1.259962 0.837202 -0.000000 0.000001 0.000000 2.924204 -3.882821 -4.570722 68.223939 -6.858091 -4.898968 -48.263636 -5.101143 15.071263 -29.760299 -0.175529 -1.740592 0.000001 -0.000000 0.000000 
-13.680969 71.826599 -4.081727 4.110585 7.761602 1.349030 6.669953 1.358273 -2.736831 -0.631357 -0.805342 -4.887747 0.000000 0.000000 0.000000 -0.608880 -0.805298 -4.887266 -14.077576 -10.176105 5.940330 3.281337 -6.836341 -9.520002 -0.000000 0.000000 -0.000000 -8.036799 -21.485210 -9.500183 0.000000 0.000000 0.000000 -14.726083 -11.896509 -5.740300 -146.957134 -62.475249 -145.446297 -7.887428 -6.581185 25.772397 11.853017 13.783149 10.547935 7.134268 24.125490 -9.310019 5.160872 34.926835 17.070550 0.000000 -0.000001 -0.000001 10.702059 -1.002508 -33.147396 -0.468596 0.763120 -96.351976 -0.448528 0.595530 -74.891808 0.000000 0.000001 -0.000001 4.375462 -0.409738 -44.950708 0.966632 0.328677 -91.921068 0.833303 -0.129197 -78.725990 -0.000002 -0.000004 -0.000002 0.232672 6.121633 -52.931972 0.782585 0.078106 -89.957321 0.811990 0.593255 -90.465330 0.000002 0.000002 -0.000000 -11.103514 10.841494 -57.415875 0.696334 -0.010317 -106.970345 0.478923 0.131754 -69.211366 -0.000003 0.000001 -0.000000 -7.296022 21.402406 5.049867 0.000000 0.000000 0.000000 -4.773013 12.248310 21.979737 -14.800916 116.232526 8.083235 -8.901745 3.776057 -31.299595 4.230389 -1.918577 -6.476963 12.275632 -36.017882 7.415603 5.146817 -51.012712 -23.813407 0.000001 0.000002 -0.000001 16.370754 2.829275 38.403801 -0.505734 -0.751328 100.224775 -0.374742 -0.534457 76.581891 0.000000 -0.000000 0.000000 5.422011 2.068114 53.814398 0.933726 -0.307694 97.586983 0.796537 0.120376 79.643257 0.000000 0.000000 0.000000 -0.820405 -4.841765 62.096986 0.758521 -0.091745 96.422634 0.788604 -0.533195 93.583229 -0.000001 0.000001 -0.000001 -12.071950 -12.450864 67.577393 0.690994 0.049066 118.162273 0.483712 -0.121004 73.959214 -0.000003 -0.000000 -0.000001 -64.680819 -7.842646 -2.903311 42.083254 -15.816167 -4.071214 14.906796 -3.064394 -7.570719 -0.327481 1.258040 0.837211 -0.000000 0.000000 -0.000000 1.381516 -4.803316 -3.220880 60.423972 -8.966050 -6.149828 -43.269808 -4.278400 15.265618 -28.332272 -0.147403 -1.654244 -0.000000 -0.000000 0.000000 
